<?xml version="1.0" encoding="UTF-8"?> <svg xmlns="http://www.w3.org/2000/svg" xmlns:xlink="http://www.w3.org/1999/xlink" width="380" id="Layer_1" x="0" y="0" viewBox="0 0 381 412" xml:space="preserve"><style>.st0{fill:#bac9d5}.st1{fill:#d5dee6}.st2{fill:#fff}.st3{fill:#f1f4f6}.st6{fill:#da9881}.st9{fill:#542343}.st10{fill:#ffb16b}.st12,.st15{clip-path:url(#SVGID_4_);fill:#fff}.st15{fill:#ffd0a6}.st20{fill:#ffd2d9}.st22{fill:#d2dfff}</style><path class="st0" d="M303.5 174.3l-71 41.6 76.1 43.7 71-41.6-76.1-43.7"></path><path class="st1" d="M232.5 132v28l76.1 43.7 71-41.6v-28z"></path><path class="st0" d="M308.7 204.3l-76.6-44v-28.8l148.1 2.1v28.7l-.2.1-71.3 41.9zM233 159.7l75.6 43.4 70.5-41.3v-27.2l-146.1-2v27.1z"></path><path class="st2" d="M308.3 182.4h.9v13.2h-.9zM303.5 90.5l-71 41.5 76.1 43.7 71-41.6z"></path><path class="st0" d="M308.7 176.3L231.6 132l.7-.4 71.2-41.7 77.1 44.3-71.9 42.1zM233.5 132l75.1 43.1 70-41L303.5 91l-70 41z"></path><path class="st3" d="M189.1 15l65.6 36.7v106.9l-65.6-37.7z"></path><path class="st1" d="M277.7 145.5L211 107.2V.1l66.6 37.3v108.1zM212 106.6l64.6 37.2V38L212 1.9v104.7z"></path><path class="st2" d="M166.7 24.8l65.6 36.7v106.9l-65.6-37.8V24.8"></path><path class="st1" d="M232.8 169.3L166.2 131V24l66.6 37.3v108m-65.6-38.9l64.6 37.2V61.7l-64.6-36.1v104.8"></path><path class="st1" d="M184.4 51.3h1v69.9h-1zM198.4 62.5h1v69.9h-1z"></path><path class="st1" d="M194.7 99.1c0 2.8 1.9 6.1 4.2 7.5 2.3 1.4 4.2.3 4.2-2.5s-1.9-6.1-4.2-7.5c-2.3-1.3-4.2-.2-4.2 2.5"></path><path class="st0" d="M200.8 107.7c-.7 0-1.4-.2-2.1-.7-2.5-1.5-4.4-5-4.4-7.9 0-1.5.5-2.7 1.5-3.2s2.2-.4 3.4.3c2.5 1.5 4.4 5 4.4 7.9 0 1.5-.5 2.7-1.5 3.2-.4.3-.8.4-1.3.4zM197 96.5c-.3 0-.6.1-.8.2-.6.4-1 1.2-1 2.4 0 2.6 1.8 5.8 4 7.1.9.6 1.8.7 2.4.3.6-.4 1-1.2 1-2.4 0-2.6-1.8-5.8-4-7.1-.5-.3-1.1-.5-1.6-.5z"></path><path class="st2" d="M191.9 100.5c0 2.8 1.9 6.1 4.2 7.5 2.3 1.4 4.2.3 4.2-2.5s-1.9-6.1-4.2-7.5c-2.3-1.3-4.2-.2-4.2 2.5"></path><path class="st0" d="M198 109.1c-.7 0-1.4-.2-2.1-.7-2.5-1.5-4.4-5-4.4-7.9 0-1.5.5-2.7 1.5-3.2s2.2-.4 3.4.3c2.5 1.5 4.4 5 4.4 7.9 0 1.5-.5 2.7-1.5 3.2-.4.3-.8.4-1.3.4zm-3.8-11.2c-.3 0-.6.1-.8.2-.6.4-1 1.2-1 2.4 0 2.6 1.8 5.8 4 7.1.9.6 1.8.7 2.4.3.6-.4 1-1.2 1-2.4 0-2.6-1.8-5.8-4-7.1-.5-.3-1.1-.5-1.6-.5z"></path><path class="st1" d="M215.2 73.7h1v69.9h-1zM180.7 62.8c0 2.8 1.9 6.1 4.2 7.5s4.2.3 4.2-2.5-1.9-6.1-4.2-7.5c-2.3-1.4-4.2-.3-4.2 2.5"></path><path class="st0" d="M186.8 71.4c-.7 0-1.4-.2-2.1-.7-2.5-1.5-4.4-5-4.4-7.9 0-1.5.5-2.7 1.5-3.2s2.2-.4 3.4.3c2.5 1.5 4.4 5 4.4 7.9 0 1.5-.5 2.7-1.5 3.2-.4.3-.8.4-1.3.4zM183 60.2c-.3 0-.6.1-.8.2-.6.4-1 1.2-1 2.4 0 2.6 1.8 5.8 4 7.1.9.6 1.8.7 2.4.3.6-.4 1-1.2 1-2.4 0-2.6-1.8-5.8-4-7.1-.5-.3-1.1-.5-1.6-.5z"></path><path class="st2" d="M177.9 64.2c0 2.8 1.9 6.1 4.2 7.5s4.2.3 4.2-2.5-1.9-6.1-4.2-7.5-4.2-.3-4.2 2.5"></path><path class="st0" d="M184 72.8c-.7 0-1.4-.2-2.1-.7-2.5-1.5-4.4-5-4.4-7.9 0-1.5.5-2.7 1.5-3.2s2.2-.4 3.4.3c2.5 1.5 4.4 5 4.4 7.9 0 1.5-.5 2.7-1.5 3.2-.4.3-.8.4-1.3.4zm-3.8-11.2c-.3 0-.6.1-.8.2-.6.4-1 1.2-1 2.4 0 2.6 1.8 5.8 4 7.1.9.6 1.8.7 2.4.3.6-.4 1-1.2 1-2.4 0-2.6-1.8-5.8-4-7.1-.5-.3-1.1-.5-1.6-.5z"></path><path class="st1" d="M211.5 127.1c0 2.8 1.9 6.1 4.2 7.5 2.3 1.4 4.2.3 4.2-2.5s-1.9-6.1-4.2-7.5c-2.3-1.4-4.2-.3-4.2 2.5"></path><path class="st0" d="M217.6 135.7c-.7 0-1.4-.2-2.1-.7-2.5-1.5-4.4-5-4.4-7.9 0-1.5.5-2.7 1.5-3.2s2.2-.4 3.4.3c2.5 1.5 4.4 5 4.4 7.9 0 1.5-.5 2.7-1.5 3.2-.4.3-.8.4-1.3.4zm-3.8-11.2c-.3 0-.6.1-.8.2-.6.4-1 1.2-1 2.4 0 2.6 1.8 5.8 4 7.1.9.6 1.8.7 2.4.3.6-.4 1-1.2 1-2.4 0-2.6-1.8-5.8-4-7.1-.5-.3-1.1-.5-1.6-.5z"></path><path class="st2" d="M208.7 128.5c0 2.8 1.9 6.1 4.2 7.5 2.3 1.4 4.2.3 4.2-2.5s-1.9-6.1-4.2-7.5c-2.3-1.4-4.2-.3-4.2 2.5"></path><path class="st0" d="M214.8 137.1c-.7 0-1.4-.2-2.1-.7-2.5-1.5-4.4-5-4.4-7.9 0-1.5.5-2.7 1.5-3.2s2.2-.4 3.4.3c2.5 1.5 4.4 5 4.4 7.9 0 1.5-.5 2.7-1.5 3.2-.4.3-.8.4-1.3.4zm-3.8-11.2c-.3 0-.6.1-.8.2-.6.4-1 1.2-1 2.4 0 2.6 1.8 5.8 4 7.1.9.6 1.8.7 2.4.3.6-.4 1-1.2 1-2.4 0-2.6-1.8-5.8-4-7.1-.5-.3-1.1-.5-1.6-.5z"></path><path fill="#c2eee3" d="M116.3 1L53.2 36.4v68L116.3 68V1"></path><path class="st0" d="M160.8 179.9l209 121.1L209 393.8 0 272.7l160.8-92.8"></path><path class="st1" d="M8.4 200.6L303.8 223v28l-128.4 73.7-167-96.2v-27.9"></path><path class="st0" d="M175.4 325.3L7.9 228.8V200h.5l295.9 22.5v28.7l-.3.1-128.6 74M8.9 228.2l166.5 95.9 127.9-73.5v-27.2L8.9 201.1v27.1"></path><path class="st2" d="M175.2 304h.9v13.2h-.9zM136.8 126.8l167 96.2-128.4 73.8-167-96.2 128.4-73.8"></path><path class="st0" d="M175.4 297.3l-168-96.8 129.4-74.3 168 96.8-.8.4-128.6 73.9m-166-96.7l166 95.6L302.8 223l-166-95.6L9.4 200.6"></path><path class="st3" d="M156 184.1l58.3 33.7-57.9 33.4-58.3-33.6 57.9-33.5"></path><path d="M155.7 91.7l-8.7-3.1-3.6 9.6c-.9 2.4.3 5 2.7 5.9h.1c2.4.9 5.1-.4 6-2.8l3.5-9.6" fill="#ffcdbc"></path><path class="st6" d="M137.1 153l3.8-2.7c1.1-.8 1.3-2.3.5-3.4-.1-.2-.3-.3-.4-.5l-3.9-3.1c-.3-.2-.5-.5-.7-.8l-8.3-17.3 12.3-18.3c.3-3.7-2.4-7-6.2-7.3-2-.2-3.9 1-5.2 2.8-1.2 1.5-9.9 16.9-10.1 20.2-.4 5.8 6.4 14.3 12.7 23.2.1.2.7 2.2 1.8 6 .4 1.3 1.7 2 3 1.6.2-.1.5-.2.7-.4"></path><defs><path id="SVGID_1_" d="M120.8 91.2H146v33.3h-25.2V91.2"></path></defs><clipPath id="SVGID_2_"><use xlink:href="#SVGID_1_" overflow="visible"></use></clipPath><path d="M128.1 99.3l-7.3 14.6 1.3.9c2.1-4.1 4.7-8.7 6-11l-.2-2.6c0-.7.1-1.3.2-1.9m3.9-8.1l-.4.8c.3-.2.5-.4.8-.6l-.4-.2" clip-path="url(#SVGID_2_)" fill="#fff"></path><path d="M128.1 103.8c-1.4 2.3-4 6.8-6 11l7.1 4.7-1.1-15.7" clip-path="url(#SVGID_2_)" fill="#a6e9ff"></path><path class="st6" d="M144.4 159.9h-12.7v51.7l7.1 2.9z"></path><path class="st9" d="M131.7 211.6v8.5l18.6-.8z"></path><path class="st6" d="M157 168.3h-14.1l1.4 51.7 7.1 2.9z"></path><path class="st9" d="M144.3 220v8.5l18.7-.8z"></path><path class="st10" d="M145.5 132.6l-17 .6 1.9 46.2h17z"></path><path class="st10" d="M138.5 187.8h16.7l4.2-36.1-1.9-20.1-22.8.6z"></path><path d="M140.1 90.9c-5.6-3.3-12.1 2.3-12.1 10.2l1.4 20.6-1 20.5c1.2 3 4 5.8 8.6 8.4 4.5 2.6 12.1 3.5 22.8 2.8-.8-15.1-1.4-25.9-1.7-32.5 2.2-2.5 2.6-6.2 1-9.1-.6-1-1.1-2-1.8-3-2.1-12.9-8.2-12.7-17.2-17.9" fill="#ffd0a6"></path><path class="st6" d="M202.9 107l.3-3.9c.1-.9-.5-1.7-1.4-1.9l-2.1-.5-1.7-1.4c-.4-.3-.9-.3-1.2 0l-5.3 5.3c-.4.4-1 .7-1.6.7l-20.5.8-16.2-7c-3.7-.3-6.9 2.4-7.2 6-.3 3.6 2.4 6.9 6.1 7.2 8.5 2.8 10.3 2.6 14.8 2.9 5.7.4 14.5-1.2 26.7-4.8.3-.1 2.7-.5 7.2-1.2 1.1-.3 2-1.1 2.1-2.2"></path><defs><path id="SVGID_3_" d="M136.3 93.5h32.6v23.4h-32.6V93.5"></path></defs><clipPath id="SVGID_4_"><use xlink:href="#SVGID_3_" overflow="visible"></use></clipPath><path class="st12" d="M155.5 97.4c-.7.2-1.3.3-2.1.3l-.3.9c.2.2.3.4.5.5l12.6 5.5v-3.1l-10.7-4.1M167.2 101.9v3.2l.6.2 1.1-2.8-1.7-.6"></path><path clip-path="url(#SVGID_4_)" fill="#d5dee6" d="M166.2 101.5v3.1l1 .5v-3.2l-1-.4"></path><path d="M153.4 97.8h-1.1c.3.3.6.5.8.8l.3-.8" clip-path="url(#SVGID_4_)" fill="#ffcdbc"></path><path class="st12" d="M159.8 114.4c.1.4.1.8.1 1.2l3.6 1.3.7-2c-1.3 0-2.7-.2-4.4-.5"></path><path class="st15" d="M143.5 95.7l-5 6.8-2.3 4.6 23.7 8.5c0-.4 0-.8-.1-1.2-1.9-.4-4.2-1-7.7-2.1-3.5-.3-6.1-3.2-6.1-6.6v-.6c.3-3.5 3.2-6.1 6.6-6.1h.6l.3.1c-.2-.2-.3-.4-.5-.5l-.8-.8c-.5 0-1 0-1.6-.1-2.3-.3-4.8-1-7.1-2"></path><path class="st15" d="M152.7 99c-3.4 0-6.3 2.6-6.6 6.1v.6c0 3.4 2.6 6.3 6.1 6.6 6.6 2.1 9.2 2.5 12.1 2.7l3.6-9.6-.6-.3-1-.4-13-5.7h-.6"></path><path class="st6" d="M162 85l1.8 4.7-1.8.1V85"></path><path class="st6" d="M150.7 97.7c-7.7-.9-15.9-5.5-17.3-13.5-1.4-8 3.9-15.6 11.9-17 8-1.4 15.6 3.9 17 11.9.6 3.5.3 11.4-1.4 14.3-2 3.6-5.7 4.8-10.2 4.3"></path><defs><path id="SVGID_5_" d="M150.4 87.8h1.6v2.3h-1.6v-2.3"></path></defs><clipPath id="SVGID_6_"><use xlink:href="#SVGID_5_" overflow="visible"></use></clipPath><path d="M150.7 87.8l-.4.3c.4.5.8 1.1 1.2 1.9l.5-.2c-.4-.8-.8-1.5-1.3-2" clip-path="url(#SVGID_6_)" fill="#b76f56"></path><defs><path id="SVGID_7_" d="M160.6 84.8h1.2V86h-1.2v-1.2"></path></defs><clipPath id="SVGID_8_"><use xlink:href="#SVGID_7_" overflow="visible"></use></clipPath><path d="M161.2 84.8h-.1c-.3.1-.5.3-.5.6v.1c.1.3.3.5.6.5h.1c.3-.1.5-.3.5-.6v-.1c-.1-.3-.3-.5-.6-.5" clip-path="url(#SVGID_8_)" fill="#9a5036"></path><g><defs><path id="SVGID_9_" d="M159.3 89.2h3.9v2.6h-3.9v-2.6"></path></defs><clipPath id="SVGID_10_"><use xlink:href="#SVGID_9_" overflow="visible"></use></clipPath><path d="M161.8 91.1c0 .2-.1.3-.1.5.4.1.9.2 1.4.3l.1-.5c-.5-.1-1-.2-1.4-.3" clip-path="url(#SVGID_10_)" fill="#fff"></path><path d="M159.8 89.2l-.5.1c.3 1.1 1.1 1.8 2.4 2.2 0-.2.1-.3.1-.5-1.1-.3-1.7-.9-2-1.8" clip-path="url(#SVGID_10_)" fill="#9a5036"></path></g><path class="st9" d="M151.9 86c3.1-1 8.7-.7 10.7-3.4 0-1.6-.1-3-.3-4-1.4-8-9-13.3-17-11.9-5.6 1-10.6 3.8-12.1 10.5-4 17.5-12.4 17.5-13.2 30.6-.8 12.8 10.4 17.7 20.4 15.4 11.7-2.7 13.1-16.1 12.5-23.4-.2-2.9-.2-5.9-1.8-7.6-3-3-2-5.3.8-6.2z"></path><path class="st20" d="M32.2 135.3v49.8l1.1.6 40.9-23.5v-3.4l-42-23.5M74.2 163.3l-39.9 23 39.9 22.9v-45.9"></path><path fill="#ddb7c4" d="M74.2 162.2l-40.9 23.5 1 .6 39.9-23v-1.1"></path><path class="st0" d="M68.1 351.8l-28.9 16.5 76.1 43.7 29-16.5z"></path><path class="st1" d="M39.2 284.4v28l76.1 43.6 29-16.4v-27.9z"></path><path class="st0" d="M115.3 356.6l-.2-.1-76.4-43.8v-28.9l106.1 27.5v28.6l-29.5 16.7zm-75.6-44.5l75.6 43.4 28.4-16.1V312L39.6 285v27.1z"></path><path class="st2" d="M115 334.7h.9v13.2h-.9zM68.1 268l-28.9 16.4 76.1 43.7 29-16.4z"></path><path class="st0" d="M115.3 328.7l-.2-.1-76.9-44.1 29.9-17 .2.1 76.9 44.1-29.9 17zm-75.1-44.3l75.1 43.1 27.9-15.9-75.1-43.1-27.9 15.9z"></path><path class="st22" d="M254.9 178.5l-13.9 7.8 13.9 8v-15.8M240 186.8l-34.1 19v7.1l8.4 4.9-8.4 4.8v35.6l49-28v-34.8l-14.9-8.6"></path><path fill="#b0c4ea" d="M241 186.3l-1 .5 14.9 8.6v-1.1l-13.9-8"></path><path fill="#cbd9fb" d="M205.9 212.9v9.7l8.4-4.8-8.4-4.9"></path></svg> 